<svg width="290" height="65" viewBox="0 0 290 65" fill="none" xmlns="http://www.w3.org/2000/svg">
<path d="M46.9514 60.584C46.9514 61.8 46.5034 62.856 45.6074 63.752C44.7754 64.584 43.7514 65 42.5354 65H39.8474C38.6314 65 37.5754 64.584 36.6794 63.752C35.8474 62.856 35.4314 61.8 35.4314 60.584V28.04C35.4314 27.144 35.0154 26.696 34.1834 26.696H30.4394C29.6714 26.696 29.2874 27.144 29.2874 28.04V60.584C29.2874 61.8 28.8394 62.856 27.9434 63.752C27.1114 64.584 26.0874 65 24.8714 65H22.2794C21.0634 65 20.0074 64.584 19.1114 63.752C18.2794 62.856 17.8634 61.8 17.8634 60.584V28.04C17.8634 27.144 17.4794 26.696 16.7114 26.696H12.9674C12.1354 26.696 11.7194 27.144 11.7194 28.04V60.584C11.7194 61.8 11.2714 62.856 10.3754 63.752C9.54338 64.584 8.51938 65 7.30338 65H4.61538C3.39938 65 2.34338 64.584 1.44738 63.752C0.615375 62.856 0.199375 61.8 0.199375 60.584V26.024C0.199375 24.04 0.679375 22.248 1.63938 20.648C2.66338 18.984 3.97538 17.672 5.57538 16.712C7.17538 15.752 8.96738 15.272 10.9514 15.272H18.5354C19.9434 15.272 21.2234 15.56 22.3754 16.136C23.1434 16.328 23.9434 16.328 24.7754 16.136C25.9274 15.56 27.2074 15.272 28.6154 15.272H36.1994C38.1834 15.272 39.9754 15.752 41.5754 16.712C43.1754 17.672 44.4554 18.984 45.4154 20.648C46.4394 22.248 46.9514 24.04 46.9514 26.024V60.584ZM89.4201 54.248C89.4201 57.256 88.3641 59.816 86.2521 61.928C84.2041 63.976 81.7081 65 78.7641 65H65.4201C62.4761 65 59.9481 63.976 57.8361 61.928C55.7241 59.816 54.6681 57.256 54.6681 54.248V26.024C54.6681 24.04 55.1481 22.248 56.1081 20.648C57.1321 18.984 58.4441 17.672 60.0441 16.712C61.6441 15.752 63.4361 15.272 65.4201 15.272H78.7641C80.7481 15.272 82.5401 15.752 84.1401 16.712C85.7401 17.672 87.0201 18.984 87.9801 20.648C88.9401 22.248 89.4201 24.04 89.4201 26.024V54.248ZM78.0921 52.424V28.04C78.0921 27.656 77.9321 27.336 77.6121 27.08C77.3561 26.824 77.0681 26.696 76.7481 26.696H67.4361C67.1161 26.696 66.7961 26.824 66.4761 27.08C66.2201 27.336 66.0921 27.656 66.0921 28.04V52.424C66.0921 52.744 66.2201 53.032 66.4761 53.288C66.7961 53.544 67.1161 53.672 67.4361 53.672H76.7481C77.0681 53.672 77.3561 53.544 77.6121 53.288C77.9321 53.032 78.0921 52.744 78.0921 52.424ZM131.983 60.584C131.983 61.8 131.567 62.856 130.735 63.752C129.903 64.584 128.879 65 127.663 65H124.975C123.759 65 122.735 64.584 121.903 63.752C121.071 62.856 120.655 61.8 120.655 60.584V28.04C120.655 27.656 120.495 27.336 120.175 27.08C119.919 26.824 119.631 26.696 119.311 26.696H109.999C109.679 26.696 109.359 26.824 109.039 27.08C108.783 27.336 108.655 27.656 108.655 28.04V60.584C108.655 61.8 108.239 62.856 107.407 63.752C106.575 64.584 105.551 65 104.335 65H101.647C100.431 65 99.3746 64.584 98.4786 63.752C97.6466 62.856 97.2306 61.8 97.2306 60.584V26.024C97.2306 24.04 97.7106 22.248 98.6706 20.648C99.6946 18.984 101.007 17.672 102.607 16.712C104.207 15.752 105.999 15.272 107.983 15.272H121.327C123.311 15.272 125.103 15.752 126.703 16.712C128.303 17.672 129.583 18.984 130.543 20.648C131.503 22.248 131.983 24.04 131.983 26.024V60.584ZM174.545 36.488C174.545 38.408 174.065 40.2 173.105 41.864C172.145 43.464 170.865 44.776 169.265 45.8C167.665 46.76 165.873 47.24 163.889 47.24H152.561C152.241 47.24 151.921 47.368 151.601 47.624C151.345 47.816 151.217 48.072 151.217 48.392V52.424C151.217 52.744 151.345 53.032 151.601 53.288C151.921 53.544 152.241 53.672 152.561 53.672H163.889C165.105 53.672 166.129 54.088 166.961 54.92C167.857 55.752 168.305 56.808 168.305 58.088V60.584C168.305 61.8 167.857 62.856 166.961 63.752C166.129 64.584 165.105 65 163.889 65H150.545C147.601 65 145.073 63.976 142.961 61.928C140.849 59.816 139.793 57.256 139.793 54.248V26.024C139.793 24.04 140.273 22.248 141.233 20.648C142.257 19.048 143.569 17.768 145.169 16.808C146.769 15.784 148.561 15.272 150.545 15.272H163.889C165.873 15.272 167.665 15.784 169.265 16.808C170.865 17.768 172.145 19.048 173.105 20.648C174.065 22.248 174.545 24.04 174.545 26.024V36.488ZM163.217 34.568V28.04C163.217 27.656 163.057 27.336 162.737 27.08C162.481 26.824 162.193 26.696 161.873 26.696H152.561C152.241 26.696 151.921 26.824 151.601 27.08C151.345 27.336 151.217 27.656 151.217 28.04V34.568C151.217 34.824 151.345 35.08 151.601 35.336C151.921 35.592 152.241 35.72 152.561 35.72H161.873C162.193 35.72 162.481 35.592 162.737 35.336C163.057 35.08 163.217 34.824 163.217 34.568ZM210.868 60.584C210.868 61.8 210.452 62.856 209.62 63.752C208.788 64.584 207.764 65 206.548 65H193.108C190.164 65 187.636 63.976 185.524 61.928C183.476 59.816 182.452 57.256 182.452 54.248V4.51999C182.452 3.24 182.868 2.184 183.7 1.352C184.532 0.519995 185.556 0.103994 186.772 0.103994H189.46C190.676 0.103994 191.7 0.519995 192.532 1.352C193.428 2.184 193.876 3.24 193.876 4.51999V14.12C193.876 14.888 194.292 15.272 195.124 15.272H206.548C207.764 15.272 208.788 15.72 209.62 16.616C210.452 17.448 210.868 18.504 210.868 19.784V22.376C210.868 23.464 210.452 24.488 209.62 25.448C208.66 26.28 207.636 26.696 206.548 26.696H195.124C194.292 26.696 193.876 27.144 193.876 28.04V52.424C193.876 53.256 194.292 53.672 195.124 53.672H206.548C207.764 53.672 208.788 54.088 209.62 54.92C210.452 55.752 210.868 56.808 210.868 58.088V60.584ZM247.149 60.584C247.149 61.8 246.733 62.856 245.901 63.752C245.069 64.584 244.045 65 242.829 65H229.389C226.445 65 223.917 63.976 221.805 61.928C219.757 59.816 218.733 57.256 218.733 54.248V4.51999C218.733 3.24 219.149 2.184 219.981 1.352C220.813 0.519995 221.837 0.103994 223.053 0.103994H225.741C226.957 0.103994 227.981 0.519995 228.813 1.352C229.709 2.184 230.157 3.24 230.157 4.51999V14.12C230.157 14.888 230.573 15.272 231.405 15.272H242.829C244.045 15.272 245.069 15.72 245.901 16.616C246.733 17.448 247.149 18.504 247.149 19.784V22.376C247.149 23.464 246.733 24.488 245.901 25.448C244.941 26.28 243.917 26.696 242.829 26.696H231.405C230.573 26.696 230.157 27.144 230.157 28.04V52.424C230.157 53.256 230.573 53.672 231.405 53.672H242.829C244.045 53.672 245.069 54.088 245.901 54.92C246.733 55.752 247.149 56.808 247.149 58.088V60.584ZM289.67 54.248C289.67 57.256 288.614 59.816 286.502 61.928C284.454 63.976 281.958 65 279.014 65H265.67C262.726 65 260.198 63.976 258.086 61.928C255.974 59.816 254.918 57.256 254.918 54.248V26.024C254.918 24.04 255.398 22.248 256.358 20.648C257.382 18.984 258.694 17.672 260.294 16.712C261.894 15.752 263.686 15.272 265.67 15.272H279.014C280.998 15.272 282.79 15.752 284.39 16.712C285.99 17.672 287.27 18.984 288.23 20.648C289.19 22.248 289.67 24.04 289.67 26.024V54.248ZM278.342 52.424V28.04C278.342 27.656 278.182 27.336 277.862 27.08C277.606 26.824 277.318 26.696 276.998 26.696H267.686C267.366 26.696 267.046 26.824 266.726 27.08C266.47 27.336 266.342 27.656 266.342 28.04V52.424C266.342 52.744 266.47 53.032 266.726 53.288C267.046 53.544 267.366 53.672 267.686 53.672H276.998C277.318 53.672 277.606 53.544 277.862 53.288C278.182 53.032 278.342 52.744 278.342 52.424Z" fill="#27272A"/>
</svg>
